# xmcd
#
# Track frame offsets: 
#        150
#        12968
#        30558
#        42515
#        58625
#        69543
#        88230
#        101800
#        114735
#        128768
#        138888
#        155953
#        170325
#
# Disc length: 2407 seconds
#
# Revision: 3
# Processed by: cddbd v1.5.2PL0 Copyright (c) Steve Scherf et al.
# Submitted via: ExactAudioCopy v1.0b4
#
DISCID=b609650d
DTITLE=Clifton Chenier - Frenchin' The Boogie
DYEAR=1976
DGENRE=Cajun, Zydeco, Blues
TTITLE0=Caldonia (What Makes Your Big Head So Hard)
TTITLE1=Laissez les bons temps rouler (Let The Good Times Roll)
TTITLE2=Tu Peux Cogner Mais Tu Peux Pas Rentrer (Keep-A-Knockin' But Y
TTITLE2=ou Can't Come In)
TTITLE3=Le Blues De La Vache A Lait (Milk Cow Blues)
TTITLE4=Moi, J'ai Une P'tite Femme (I Got A Woman, I Got A Sweetie)
TTITLE5=Tous Les Jours Mon Coeur Est Blue (Every Day I Have The Blues)
TTITLE6=J'veux Faire L'amour A Toi (I Just Wanna Make Love To You)
TTITLE7=Choo-Choo Ch'Boogie
TTITLE8=La Valse De Paris
TTITLE9=Shake, Rattle And Roll
TTITLE10=Goin' Down Slow (In Paris)
TTITLE11=Don't You Lie To Me
TTITLE12=Aye, Aye Mama
EXTD=
EXTT0=
EXTT1=
EXTT2=
EXTT3=
EXTT4=
EXTT5=
EXTT6=
EXTT7=
EXTT8=
EXTT9=
EXTT10=
EXTT11=
EXTT12=
PLAYORDER=
